<svg width="20" height="20" viewBox="0 0 20 20" fill="none"
    xmlns="http://www.w3.org/2000/svg">
    <path d="M0.366095 9.11602L4.79492 4.6872C5.03902 4.4431 5.35891 4.32106 5.67883 4.32106C5.99875 4.32106 6.31863 4.4431 6.56273 4.6872C7.05086 5.17536 7.05086 5.96681 6.56273 6.45497L4.26777 8.74989L18.75 8.74989C19.4404 8.74989 20 9.30954 20 9.99989C20 10.6902 19.4404 11.2499 18.75 11.2499L4.26777 11.2499L6.56273 13.5448C7.05086 14.033 7.05086 14.8244 6.56273 15.3126C6.07453 15.8008 5.28312 15.8008 4.79492 15.3126L0.366095 10.8838C-0.12203 10.3956 -0.12203 9.60415 0.366095 9.11602Z" fill="#5F3ECC"/>
</svg>
