<svg width="25" height="27" viewBox="0 0 25 27" fill="none"
    xmlns="http://www.w3.org/2000/svg">
    <path d="M20.2516 2.32221L20.2516 2.32225C22.6797 4.75132 24.0172 7.98205 24.0172 11.4168C24.0172 11.9033 23.6224 12.2981 23.1359 12.2981C22.6494 12.2981 22.2547 11.9033 22.2547 11.4168C22.2547 8.45165 21.1008 5.66565 19.0049 3.56877L20.2516 2.32221ZM20.2516 2.32221C19.9072 1.97803 19.3491 1.97799 19.0049 2.32223C18.6606 2.66646 18.6606 3.22453 19.0048 3.56876L20.2516 2.32221Z" fill="#5F3ECC" stroke="#5F3ECC" stroke-width="0.2"/>
    <path d="M5.91345 3.56947L5.91347 3.56945C6.2577 3.22522 6.2577 2.66695 5.91347 2.32272C5.56924 1.97849 5.01097 1.97849 4.66674 2.32272C2.23766 4.75085 0.9 7.98159 0.9 11.4163C0.9 11.9028 1.29477 12.2976 1.78125 12.2976C2.26773 12.2976 2.6625 11.9028 2.6625 11.4163C2.6625 8.45118 3.81659 5.66519 5.91345 3.56947Z" fill="#5F3ECC" stroke="#5F3ECC" stroke-width="0.2"/>
    <path d="M8.45249 22.0938C8.45249 24.3031 10.2494 26.1 12.4587 26.1C14.6681 26.1 16.465 24.3031 16.465 22.0938C16.465 21.6073 16.0702 21.2125 15.5837 21.2125C15.0973 21.2125 14.7025 21.6073 14.7025 22.0938C14.7025 23.3313 13.6961 24.3375 12.4587 24.3375C11.2212 24.3375 10.215 23.3313 10.215 22.0938C10.215 21.6073 9.82022 21.2125 9.33374 21.2125C8.84726 21.2125 8.45249 21.6073 8.45249 22.0938Z" fill="#5F3ECC" stroke="#5F3ECC" stroke-width="0.2"/>
    <path d="M2.61435 19.5903L2.61386 19.5907C2.18633 19.9566 1.94126 20.4895 1.94126 21.0521C1.94126 22.1126 2.80372 22.975 3.8643 22.975H21.0518C22.1122 22.975 22.9747 22.1125 22.9747 21.0521C22.9747 20.4891 22.7293 19.9563 22.2916 19.5833L22.2913 19.5831C20.7398 18.2707 19.8497 16.3529 19.8497 14.3209V11.4166C19.8497 7.34068 16.534 4.025 12.4581 4.025C8.38195 4.025 5.06626 7.34068 5.06626 11.4166V14.3209C5.06626 16.3529 4.17617 18.2706 2.61435 19.5903ZM21.1558 20.9305L21.2204 20.8542L21.1559 20.9305C21.1778 20.9491 21.2122 20.9883 21.2122 21.0521C21.2122 21.1384 21.1381 21.2125 21.0518 21.2125H3.8643C3.77777 21.2125 3.70376 21.1384 3.70376 21.0521C3.70376 20.9892 3.73737 20.9498 3.76242 20.9282C5.71078 19.2811 6.82876 16.8719 6.82876 14.3209V11.4166C6.82876 8.3125 9.35376 5.7875 12.4581 5.7875C15.5622 5.7875 18.0872 8.3125 18.0872 11.4166V14.3209C18.0872 16.8721 19.2053 19.2813 21.1558 20.9305Z" fill="#5F3ECC" stroke="#5F3ECC" stroke-width="0.2"/>
    <path d="M11.5775 4.90625C11.5775 5.39273 11.9723 5.7875 12.4587 5.7875C12.9452 5.7875 13.34 5.39273 13.34 4.90625V1.78125C13.34 1.29477 12.9452 0.9 12.4587 0.9C11.9723 0.9 11.5775 1.29477 11.5775 1.78125V4.90625Z" fill="#5F3ECC" stroke="#5F3ECC" stroke-width="0.2"/>
</svg>
