<svg width="25" height="25" viewBox="0 0 25 25" fill="none"
    xmlns="http://www.w3.org/2000/svg">
    <path d="M12.5 25C9.16113 25 6.02212 23.6998 3.66113 21.3389C1.30024 18.9779 0 15.8389 0 12.5C0 9.16113 1.30024 6.02212 3.66113 3.66113C6.02212 1.30024 9.16113 0 12.5 0C15.8389 0 18.9779 1.30024 21.3389 3.66113C23.6998 6.02212 25 9.16113 25 12.5C25 15.8389 23.6998 18.9779 21.3389 21.3389C18.9779 23.6998 15.8389 25 12.5 25ZM12.5 1.95312C6.68442 1.95312 1.95312 6.68442 1.95312 12.5C1.95312 18.3156 6.68442 23.0469 12.5 23.0469C18.3156 23.0469 23.0469 18.3156 23.0469 12.5C23.0469 6.68442 18.3156 1.95312 12.5 1.95312ZM12.4512 13.4277C9.86646 13.4277 7.76367 11.325 7.76367 8.74023C7.76367 6.15552 9.86646 4.05273 12.4512 4.05273C15.0359 4.05273 17.1387 6.15552 17.1387 8.74023C17.1387 11.325 15.0359 13.4277 12.4512 13.4277ZM12.4512 6.00586C10.9434 6.00586 9.7168 7.23252 9.7168 8.74023C9.7168 10.2479 10.9434 11.4746 12.4512 11.4746C13.9589 11.4746 15.1855 10.2479 15.1855 8.74023C15.1855 7.23252 13.9589 6.00586 12.4512 6.00586ZM18.6383 19.1148C19.0556 18.7731 19.1167 18.1578 18.775 17.7405C17.3941 16.0547 15.3537 15.0879 13.177 15.0879H12.0183C9.8416 15.0879 7.80122 16.0547 6.42036 17.7406C6.07861 18.1578 6.13979 18.7731 6.55708 19.1149C6.97432 19.4567 7.5896 19.3954 7.9314 18.9782C8.9397 17.7471 10.4293 17.041 12.0183 17.041H13.177C14.766 17.041 16.2556 17.7471 17.264 18.9782C17.4571 19.2139 17.7374 19.3359 18.02 19.3359C18.2377 19.3359 18.4568 19.2635 18.6383 19.1148Z" fill="#5F3ECC"/>
</svg>
