<svg width="27" height="27" viewBox="0 0 27 27" fill="none"
    xmlns="http://www.w3.org/2000/svg">
    <path d="M13.3794 16.496C13.3792 18.0839 12.0918 19.3709 10.5039 19.3707C8.91602 19.3704 7.62901 18.083 7.62929 16.4951C7.62957 14.9074 8.91668 13.6205 10.5044 13.6205C10.9102 13.6205 11.2391 13.2916 11.2391 12.8857C11.2391 12.4799 10.9102 12.151 10.5044 12.151L10.5043 12.151C8.10529 12.1526 6.16093 14.097 6.15928 16.496V16.4961C6.15928 18.8957 8.10453 20.8409 10.5041 20.8409C12.9037 20.8409 14.849 18.8957 14.849 16.4961C14.849 16.0903 14.52 15.7613 14.1142 15.7613C13.7084 15.7613 13.3794 16.0902 13.3794 16.496ZM13.3794 16.496L13.4794 16.4961M13.3794 16.496L13.4794 16.4961M13.4794 16.4961C13.4792 18.1392 12.147 19.4709 10.5039 19.4707C8.86077 19.4704 7.529 18.1382 7.52929 16.4951C7.52958 14.8522 8.86146 13.5205 10.5044 13.5205C10.855 13.5205 11.1391 13.2363 11.1391 12.8857C11.1391 12.5352 10.855 12.251 10.5044 12.251L6.25928 16.4961C6.25928 18.8404 8.15975 20.7409 10.5041 20.7409C12.8485 20.7409 14.749 18.8404 14.749 16.4961C14.749 16.1455 14.4648 15.8613 14.1142 15.8613C13.7636 15.8613 13.4794 16.1455 13.4794 16.4961Z" fill="#5F3ECC" stroke="#5F3ECC" stroke-width="0.2"/>
    <path d="M16.6906 21.4822L16.6905 21.482L15.9152 20.3772C15.9152 20.3772 15.9152 20.3772 15.9152 20.3771C15.7502 20.1429 15.7365 19.834 15.8801 19.586C16.148 19.122 16.3543 18.625 16.4937 18.1076L16.6906 21.4822ZM16.6906 21.4822C16.7711 21.5963 16.7576 21.7518 16.6588 21.8504L16.6587 21.8505M16.6906 21.4822L16.6587 21.8505M16.6587 21.8505L15.8618 22.6473L15.8617 22.6474M16.6587 21.8505L15.8617 22.6474M15.8617 22.6474C15.7632 22.7462 15.608 22.7598 15.4939 22.6797L15.4939 22.6796M15.8617 22.6474L15.4939 22.6796M15.4939 22.6796L14.389 21.9044M15.4939 22.6796L14.389 21.9044M11.3506 24.3928L11.3507 24.3924L11.5865 23.0655C11.5865 23.0655 11.5865 23.0654 11.5865 23.0654C11.6359 22.7841 11.8437 22.557 12.1194 22.4828C12.6368 22.3435 13.1338 22.1372 13.5977 21.8693L11.3506 24.3928ZM11.3506 24.3928C11.3267 24.5301 11.2074 24.6304 11.0679 24.6302H11.0678M11.3506 24.3928L11.0678 24.6302M11.0678 24.6302H9.94037H9.94027M11.0678 24.6302H9.94027M9.94027 24.6302C9.80084 24.6304 9.68151 24.5301 9.65754 24.3927L9.65752 24.3927M9.94027 24.6302L9.65752 24.3927M9.65752 24.3927L9.42462 23.0645M9.65752 24.3927L9.42462 23.0645M5.51853 22.6783L5.51866 22.6782L6.62158 21.9034L5.51853 22.6783ZM5.51853 22.6783C5.40443 22.7587 5.24898 22.7453 5.15035 22.6464L5.15028 22.6464M5.51853 22.6783L5.15028 22.6464M5.15028 22.6464L4.35341 21.8495L4.35337 21.8494M5.15028 22.6464L4.35337 21.8494M4.35337 21.8494C4.25473 21.7509 4.24113 21.5957 4.32115 21.4815L5.09639 20.3767C5.26134 20.1424 5.27511 19.8335 5.13149 19.5855C4.86344 19.1215 4.65718 18.6246 4.51794 18.1071L4.35337 21.8494ZM2.607 17.3412L2.60711 17.3413L3.93521 17.5742L3.93522 17.5742L3.91795 17.6727L2.607 17.3412ZM2.607 17.3412C2.4699 17.3174 2.36978 17.1985 2.36952 17.0593C2.36952 17.0593 2.36952 17.0593 2.36952 17.0592L2.36952 15.932L2.36952 15.9318M2.607 17.3412L2.36952 15.9318M2.36952 15.9318C2.36938 15.7924 2.46961 15.6731 2.60702 15.6491L2.60711 15.6491M2.36952 15.9318L2.60711 15.6491M2.60711 15.6491L3.93521 15.4162M2.60711 15.6491L4.51794 14.8832M4.51794 14.8832L4.51794 14.8832C4.44378 15.159 4.21652 15.3669 3.93521 15.4162M4.51794 14.8832C4.65707 14.3653 4.86331 13.8679 5.13143 13.4035C5.2751 13.1555 5.26137 12.8465 5.09641 12.6122C5.09641 12.6122 5.0964 12.6122 5.09639 12.6122L4.32152 11.5107L4.32146 11.5106M4.51794 14.8832L4.32146 11.5106M3.93521 15.4162L3.91795 15.3177L3.93522 15.4162L3.93521 15.4162ZM4.32146 11.5106C4.24103 11.3965 4.25448 11.2411 4.35333 11.1424L4.35341 11.1423M4.32146 11.5106L4.35341 11.1423M4.35341 11.1423L5.15076 10.345L5.1508 10.3449M4.35341 11.1423L5.1508 10.3449M5.1508 10.3449C5.24933 10.2463 5.40456 10.2329 5.51861 10.3131L5.5187 10.3132M5.1508 10.3449L5.5187 10.3132M5.5187 10.3132L6.62354 11.0885L5.5187 10.3132ZM8.212 8.34542L8.212 8.3454C8.28209 7.94569 8.66292 7.67846 9.06263 7.74855C9.46233 7.81863 9.72956 8.19946 9.65948 8.59917L9.56098 8.5819L9.65948 8.59918L9.42657 9.92728L9.42657 9.92729L9.32807 9.91002L8.212 8.34542ZM8.212 8.34542L8.05724 9.22912C7.72938 9.34029 7.40948 9.47365 7.09971 9.62826L6.36513 9.11291C6.3651 9.11289 6.36507 9.11287 6.36504 9.11285C5.66691 8.62167 4.71655 8.70448 4.11389 9.30899C4.11383 9.30904 4.11378 9.3091 4.11372 9.30916L3.31428 10.1032L3.31411 10.1034M8.212 8.34542L3.31411 10.1034M3.31411 10.1034C2.71 10.7064 2.62742 11.6566 3.11838 12.3547L3.63375 13.0893C3.47909 13.3992 3.34572 13.7193 3.23459 14.0474L2.35091 14.2021L2.35086 14.2021M3.31411 10.1034L2.35086 14.2021M2.35086 14.2021C1.5111 14.3496 0.898966 15.0795 0.900001 15.9321M2.35086 14.2021L0.900001 15.9321M3.11837 20.6371L3.11841 20.637L3.63564 19.9024C3.48101 19.5927 3.34766 19.2728 3.23654 18.9449L2.35293 18.7897L3.11837 20.6371ZM3.11837 20.6371C2.62758 21.3354 2.71035 22.2855 3.31455 22.8884L3.11837 20.6371ZM8.20761 24.6484L8.20761 24.6484L8.05284 23.7647C7.72502 23.6535 7.40515 23.5202 7.0954 23.3656L6.36318 23.8809L6.30679 23.8007L6.36317 23.8809C5.66508 24.372 4.71479 24.2895 4.11191 23.6853C4.11187 23.6852 4.11184 23.6852 4.1118 23.6851L3.31461 22.8884L8.20761 24.6484ZM8.20761 24.6484C8.35508 25.4895 9.08672 26.1022 9.94066 26.0998M8.20761 24.6484L9.94066 26.0998M17.8908 20.6342L17.8908 20.6342C18.3816 21.3325 18.2988 22.2827 17.6945 22.8855L16.8974 23.6827L17.8908 20.6342ZM17.8908 20.6342L17.3759 19.9019C17.5305 19.5922 17.6638 19.2723 17.775 18.9444L18.6588 18.7892C18.6588 18.7892 18.6588 18.7892 18.6588 18.7892C19.0585 18.7191 19.3257 18.3383 19.2556 17.9386C19.1855 17.5389 18.8047 17.2717 18.405 17.3417M17.8908 20.6342L18.405 17.3417M18.405 17.3417L17.0764 17.5747M18.405 17.3417L17.0764 17.5747M17.0764 17.5747C16.7951 17.6239 16.5678 17.8318 16.4937 18.1076L17.0764 17.5747ZM14.389 21.9044C14.389 21.9043 14.389 21.9043 14.389 21.9043M14.389 21.9044L14.389 21.9043M14.389 21.9043C14.1547 21.7393 13.8458 21.7256 13.5979 21.8692L14.389 21.9043ZM9.42462 23.0645C9.37533 22.7833 9.16747 22.556 8.89168 22.4818C8.37415 22.3424 7.87699 22.1362 7.41274 21.8683C7.16478 21.7247 6.85596 21.7384 6.62168 21.9033L9.42462 23.0645ZM0.900001 15.9321L0.900001 17.0593V17.0594H1L0.900001 15.9321ZM9.94066 26.0998H11.0677H11.0678V25.9998M9.94066 26.0998L12.7981 24.6465L12.6996 24.6292M11.0678 25.9998C11.8728 26.0007 12.5616 25.4222 12.6996 24.6292M11.0678 25.9998H9.94037H11.0678ZM12.6996 24.6292L12.7982 24.6463L12.9534 23.7627M12.6996 24.6292L12.8652 23.6868M12.8652 23.6868L12.8965 23.7817C12.9155 23.7755 12.9344 23.7691 12.9534 23.7627M12.8652 23.6868L12.9637 23.7041L12.9534 23.7627M12.8652 23.6868L12.9534 23.7627M12.9534 23.7627C13.2812 23.6516 13.6012 23.5182 13.9109 23.3636L14.646 23.8789C15.3442 24.37 16.2945 24.2872 16.8973 23.6828L12.9534 23.7627Z" fill="#5F3ECC" stroke="#5F3ECC" stroke-width="0.2"/>
    <mask id="path-3-outside-1_55171_2603" maskUnits="userSpaceOnUse" x="9.75037" y="0" width="17" height="17" fill="black">
        <rect fill="white" x="9.75037" width="17" height="17"/>
        <path d="M24.8084 6.76168L24.1443 6.64547C24.0614 6.40602 23.9635 6.17199 23.8514 5.94479L24.242 5.3945C24.6444 4.82224 24.5766 4.04339 24.0813 3.5493L23.4524 2.91893C22.9581 2.42265 22.1781 2.35458 21.6053 2.7578L21.053 3.14501C20.8258 3.0328 20.5918 2.93495 20.3524 2.85204L20.2381 2.19091C20.1179 1.50156 19.5189 0.998879 18.8192 1H17.931C17.2313 0.999123 16.6325 1.50205 16.5125 2.1914L16.3958 2.85546C16.1564 2.93837 15.9224 3.03622 15.6952 3.14843L15.1429 2.7578C14.5707 2.35536 13.7918 2.42319 13.2977 2.91845L12.6698 3.54735C12.1735 4.04168 12.1054 4.82171 12.5087 5.3945L12.8959 5.94675C12.7837 6.17394 12.6858 6.40797 12.6029 6.64743L11.9413 6.76168C11.2521 6.8819 10.7495 7.48058 10.7504 8.18013V9.06831C10.749 9.76821 11.2518 10.3675 11.9413 10.4877L12.6048 10.6039C12.6878 10.8434 12.7856 11.0774 12.8978 11.3046L12.5101 11.8569C12.1076 12.4289 12.175 13.2076 12.6698 13.7021L13.2977 14.33C13.7919 14.8255 14.571 14.8934 15.1434 14.4906L15.6971 14.1034C15.9244 14.2156 16.1583 14.3134 16.3978 14.3964L16.5145 15.0605C16.6347 15.7496 17.2334 16.2522 17.9329 16.2514H18.8211C19.5209 16.2514 20.1191 15.7476 20.2381 15.058L20.3543 14.3944C20.5938 14.3115 20.8278 14.2137 21.055 14.1015L21.6053 14.4911C22.178 14.8945 22.9582 14.8265 23.4524 14.33L24.0808 13.7016C24.5758 13.2076 24.6438 12.4292 24.242 11.8569L23.8538 11.3027C23.966 11.0754 24.0638 10.8414 24.1468 10.602L24.8108 10.4853C25.4985 10.3644 25.9999 9.76699 25.9998 9.0688V8.18062C26.0009 7.48072 25.4979 6.8817 24.8084 6.76168ZM24.7303 9.07026C24.7303 9.15312 24.6707 9.22397 24.5891 9.23823L23.5423 9.42182C23.2993 9.4644 23.1029 9.64399 23.0389 9.88227C22.9303 10.2854 22.7696 10.6726 22.5608 11.0341C22.4367 11.2484 22.4485 11.5153 22.5911 11.7177L23.2019 12.5888C23.2497 12.6566 23.2416 12.749 23.1829 12.8075L22.555 13.4355C22.4958 13.4924 22.4044 13.4989 22.3377 13.4511L21.4651 12.8407C21.2627 12.6982 20.9958 12.6864 20.7816 12.8105C20.42 13.0193 20.0328 13.18 19.6297 13.2885C19.3919 13.3533 19.2132 13.55 19.1712 13.7929L18.9876 14.8398C18.9734 14.9213 18.9025 14.9809 18.8197 14.9809H17.931C17.8481 14.9809 17.7773 14.9213 17.763 14.8398L17.5789 13.7929C17.5364 13.5499 17.3568 13.3535 17.1185 13.2895C16.7152 13.1809 16.3279 13.0202 15.9662 12.8114C15.7519 12.6873 15.485 12.6991 15.2826 12.8417L14.4139 13.4511C14.3461 13.4988 14.2537 13.4908 14.1952 13.432L13.5672 12.8041C13.5085 12.7456 13.5004 12.6532 13.5482 12.5854L14.159 11.7143C14.3016 11.5118 14.3134 11.245 14.1893 11.0307C13.9805 10.6692 13.8198 10.282 13.7113 9.87885C13.6463 9.64125 13.4497 9.46269 13.2069 9.42085L12.16 9.23725C12.0784 9.22299 12.0189 9.15215 12.0189 9.06929L12.0194 8.18062C12.0194 8.09776 12.0789 8.02691 12.1605 8.01265L13.2069 7.82857C13.4499 7.78599 13.6462 7.6064 13.7103 7.36812C13.8189 6.965 13.9795 6.5778 14.1883 6.21628C14.3125 6.00202 14.3006 5.73513 14.1581 5.53269L13.5487 4.66209C13.5009 4.59427 13.509 4.50188 13.5677 4.44334L14.1961 3.81492C14.2547 3.75619 14.3471 3.74813 14.4149 3.79588L15.2855 4.40672C15.4879 4.54925 15.7548 4.56111 15.9691 4.43699C16.3306 4.2282 16.7178 4.06751 17.1209 3.95897C17.3592 3.8949 17.5388 3.69857 17.5814 3.45555L17.765 2.40868C17.7799 2.32856 17.8495 2.27026 17.931 2.26952H18.8192C18.902 2.26948 18.9729 2.32905 18.9871 2.41064L19.1707 3.45751C19.2133 3.70052 19.3929 3.89686 19.6312 3.96092C20.0343 4.06942 20.4215 4.23011 20.783 4.43894C20.9973 4.56306 21.2642 4.55125 21.4666 4.40867L22.3377 3.79784C22.4055 3.75008 22.4979 3.75814 22.5564 3.81688L23.1849 4.44529C23.2419 4.50408 23.2491 4.5951 23.2019 4.66209L22.5911 5.53464C22.4485 5.73708 22.4367 6.00397 22.5608 6.21823C22.7696 6.57975 22.9303 6.96696 23.0389 7.37008C23.1029 7.60836 23.2993 7.78795 23.5423 7.83052L24.5891 8.01412C24.6707 8.02837 24.7303 8.09922 24.7303 8.18208V9.07026Z"/>
    </mask>
    <path d="M24.8084 6.76168L24.1443 6.64547C24.0614 6.40602 23.9635 6.17199 23.8514 5.94479L24.242 5.3945C24.6444 4.82224 24.5766 4.04339 24.0813 3.5493L23.4524 2.91893C22.9581 2.42265 22.1781 2.35458 21.6053 2.7578L21.053 3.14501C20.8258 3.0328 20.5918 2.93495 20.3524 2.85204L20.2381 2.19091C20.1179 1.50156 19.5189 0.998879 18.8192 1H17.931C17.2313 0.999123 16.6325 1.50205 16.5125 2.1914L16.3958 2.85546C16.1564 2.93837 15.9224 3.03622 15.6952 3.14843L15.1429 2.7578C14.5707 2.35536 13.7918 2.42319 13.2977 2.91845L12.6698 3.54735C12.1735 4.04168 12.1054 4.82171 12.5087 5.3945L12.8959 5.94675C12.7837 6.17394 12.6858 6.40797 12.6029 6.64743L11.9413 6.76168C11.2521 6.8819 10.7495 7.48058 10.7504 8.18013V9.06831C10.749 9.76821 11.2518 10.3675 11.9413 10.4877L12.6048 10.6039C12.6878 10.8434 12.7856 11.0774 12.8978 11.3046L12.5101 11.8569C12.1076 12.4289 12.175 13.2076 12.6698 13.7021L13.2977 14.33C13.7919 14.8255 14.571 14.8934 15.1434 14.4906L15.6971 14.1034C15.9244 14.2156 16.1583 14.3134 16.3978 14.3964L16.5145 15.0605C16.6347 15.7496 17.2334 16.2522 17.9329 16.2514H18.8211C19.5209 16.2514 20.1191 15.7476 20.2381 15.058L20.3543 14.3944C20.5938 14.3115 20.8278 14.2137 21.055 14.1015L21.6053 14.4911C22.178 14.8945 22.9582 14.8265 23.4524 14.33L24.0808 13.7016C24.5758 13.2076 24.6438 12.4292 24.242 11.8569L23.8538 11.3027C23.966 11.0754 24.0638 10.8414 24.1468 10.602L24.8108 10.4853C25.4985 10.3644 25.9999 9.76699 25.9998 9.0688V8.18062C26.0009 7.48072 25.4979 6.8817 24.8084 6.76168ZM24.7303 9.07026C24.7303 9.15312 24.6707 9.22397 24.5891 9.23823L23.5423 9.42182C23.2993 9.4644 23.1029 9.64399 23.0389 9.88227C22.9303 10.2854 22.7696 10.6726 22.5608 11.0341C22.4367 11.2484 22.4485 11.5153 22.5911 11.7177L23.2019 12.5888C23.2497 12.6566 23.2416 12.749 23.1829 12.8075L22.555 13.4355C22.4958 13.4924 22.4044 13.4989 22.3377 13.4511L21.4651 12.8407C21.2627 12.6982 20.9958 12.6864 20.7816 12.8105C20.42 13.0193 20.0328 13.18 19.6297 13.2885C19.3919 13.3533 19.2132 13.55 19.1712 13.7929L18.9876 14.8398C18.9734 14.9213 18.9025 14.9809 18.8197 14.9809H17.931C17.8481 14.9809 17.7773 14.9213 17.763 14.8398L17.5789 13.7929C17.5364 13.5499 17.3568 13.3535 17.1185 13.2895C16.7152 13.1809 16.3279 13.0202 15.9662 12.8114C15.7519 12.6873 15.485 12.6991 15.2826 12.8417L14.4139 13.4511C14.3461 13.4988 14.2537 13.4908 14.1952 13.432L13.5672 12.8041C13.5085 12.7456 13.5004 12.6532 13.5482 12.5854L14.159 11.7143C14.3016 11.5118 14.3134 11.245 14.1893 11.0307C13.9805 10.6692 13.8198 10.282 13.7113 9.87885C13.6463 9.64125 13.4497 9.46269 13.2069 9.42085L12.16 9.23725C12.0784 9.22299 12.0189 9.15215 12.0189 9.06929L12.0194 8.18062C12.0194 8.09776 12.0789 8.02691 12.1605 8.01265L13.2069 7.82857C13.4499 7.78599 13.6462 7.6064 13.7103 7.36812C13.8189 6.965 13.9795 6.5778 14.1883 6.21628C14.3125 6.00202 14.3006 5.73513 14.1581 5.53269L13.5487 4.66209C13.5009 4.59427 13.509 4.50188 13.5677 4.44334L14.1961 3.81492C14.2547 3.75619 14.3471 3.74813 14.4149 3.79588L15.2855 4.40672C15.4879 4.54925 15.7548 4.56111 15.9691 4.43699C16.3306 4.2282 16.7178 4.06751 17.1209 3.95897C17.3592 3.8949 17.5388 3.69857 17.5814 3.45555L17.765 2.40868C17.7799 2.32856 17.8495 2.27026 17.931 2.26952H18.8192C18.902 2.26948 18.9729 2.32905 18.9871 2.41064L19.1707 3.45751C19.2133 3.70052 19.3929 3.89686 19.6312 3.96092C20.0343 4.06942 20.4215 4.23011 20.783 4.43894C20.9973 4.56306 21.2642 4.55125 21.4666 4.40867L22.3377 3.79784C22.4055 3.75008 22.4979 3.75814 22.5564 3.81688L23.1849 4.44529C23.2419 4.50408 23.2491 4.5951 23.2019 4.66209L22.5911 5.53464C22.4485 5.73708 22.4367 6.00397 22.5608 6.21823C22.7696 6.57975 22.9303 6.96696 23.0389 7.37008C23.1029 7.60836 23.2993 7.78795 23.5423 7.83052L24.5891 8.01412C24.6707 8.02837 24.7303 8.09922 24.7303 8.18208V9.07026Z" fill="#5F3ECC"/>
    <path d="M24.8084 6.76168L24.1443 6.64547C24.0614 6.40602 23.9635 6.17199 23.8514 5.94479L24.242 5.3945C24.6444 4.82224 24.5766 4.04339 24.0813 3.5493L23.4524 2.91893C22.9581 2.42265 22.1781 2.35458 21.6053 2.7578L21.053 3.14501C20.8258 3.0328 20.5918 2.93495 20.3524 2.85204L20.2381 2.19091C20.1179 1.50156 19.5189 0.998879 18.8192 1H17.931C17.2313 0.999123 16.6325 1.50205 16.5125 2.1914L16.3958 2.85546C16.1564 2.93837 15.9224 3.03622 15.6952 3.14843L15.1429 2.7578C14.5707 2.35536 13.7918 2.42319 13.2977 2.91845L12.6698 3.54735C12.1735 4.04168 12.1054 4.82171 12.5087 5.3945L12.8959 5.94675C12.7837 6.17394 12.6858 6.40797 12.6029 6.64743L11.9413 6.76168C11.2521 6.8819 10.7495 7.48058 10.7504 8.18013V9.06831C10.749 9.76821 11.2518 10.3675 11.9413 10.4877L12.6048 10.6039C12.6878 10.8434 12.7856 11.0774 12.8978 11.3046L12.5101 11.8569C12.1076 12.4289 12.175 13.2076 12.6698 13.7021L13.2977 14.33C13.7919 14.8255 14.571 14.8934 15.1434 14.4906L15.6971 14.1034C15.9244 14.2156 16.1583 14.3134 16.3978 14.3964L16.5145 15.0605C16.6347 15.7496 17.2334 16.2522 17.9329 16.2514H18.8211C19.5209 16.2514 20.1191 15.7476 20.2381 15.058L20.3543 14.3944C20.5938 14.3115 20.8278 14.2137 21.055 14.1015L21.6053 14.4911C22.178 14.8945 22.9582 14.8265 23.4524 14.33L24.0808 13.7016C24.5758 13.2076 24.6438 12.4292 24.242 11.8569L23.8538 11.3027C23.966 11.0754 24.0638 10.8414 24.1468 10.602L24.8108 10.4853C25.4985 10.3644 25.9999 9.76699 25.9998 9.0688V8.18062C26.0009 7.48072 25.4979 6.8817 24.8084 6.76168ZM24.7303 9.07026C24.7303 9.15312 24.6707 9.22397 24.5891 9.23823L23.5423 9.42182C23.2993 9.4644 23.1029 9.64399 23.0389 9.88227C22.9303 10.2854 22.7696 10.6726 22.5608 11.0341C22.4367 11.2484 22.4485 11.5153 22.5911 11.7177L23.2019 12.5888C23.2497 12.6566 23.2416 12.749 23.1829 12.8075L22.555 13.4355C22.4958 13.4924 22.4044 13.4989 22.3377 13.4511L21.4651 12.8407C21.2627 12.6982 20.9958 12.6864 20.7816 12.8105C20.42 13.0193 20.0328 13.18 19.6297 13.2885C19.3919 13.3533 19.2132 13.55 19.1712 13.7929L18.9876 14.8398C18.9734 14.9213 18.9025 14.9809 18.8197 14.9809H17.931C17.8481 14.9809 17.7773 14.9213 17.763 14.8398L17.5789 13.7929C17.5364 13.5499 17.3568 13.3535 17.1185 13.2895C16.7152 13.1809 16.3279 13.0202 15.9662 12.8114C15.7519 12.6873 15.485 12.6991 15.2826 12.8417L14.4139 13.4511C14.3461 13.4988 14.2537 13.4908 14.1952 13.432L13.5672 12.8041C13.5085 12.7456 13.5004 12.6532 13.5482 12.5854L14.159 11.7143C14.3016 11.5118 14.3134 11.245 14.1893 11.0307C13.9805 10.6692 13.8198 10.282 13.7113 9.87885C13.6463 9.64125 13.4497 9.46269 13.2069 9.42085L12.16 9.23725C12.0784 9.22299 12.0189 9.15215 12.0189 9.06929L12.0194 8.18062C12.0194 8.09776 12.0789 8.02691 12.1605 8.01265L13.2069 7.82857C13.4499 7.78599 13.6462 7.6064 13.7103 7.36812C13.8189 6.965 13.9795 6.5778 14.1883 6.21628C14.3125 6.00202 14.3006 5.73513 14.1581 5.53269L13.5487 4.66209C13.5009 4.59427 13.509 4.50188 13.5677 4.44334L14.1961 3.81492C14.2547 3.75619 14.3471 3.74813 14.4149 3.79588L15.2855 4.40672C15.4879 4.54925 15.7548 4.56111 15.9691 4.43699C16.3306 4.2282 16.7178 4.06751 17.1209 3.95897C17.3592 3.8949 17.5388 3.69857 17.5814 3.45555L17.765 2.40868C17.7799 2.32856 17.8495 2.27026 17.931 2.26952H18.8192C18.902 2.26948 18.9729 2.32905 18.9871 2.41064L19.1707 3.45751C19.2133 3.70052 19.3929 3.89686 19.6312 3.96092C20.0343 4.06942 20.4215 4.23011 20.783 4.43894C20.9973 4.56306 21.2642 4.55125 21.4666 4.40867L22.3377 3.79784C22.4055 3.75008 22.4979 3.75814 22.5564 3.81688L23.1849 4.44529C23.2419 4.50408 23.2491 4.5951 23.2019 4.66209L22.5911 5.53464C22.4485 5.73708 22.4367 6.00397 22.5608 6.21823C22.7696 6.57975 22.9303 6.96696 23.0389 7.37008C23.1029 7.60836 23.2993 7.78795 23.5423 7.83052L24.5891 8.01412C24.6707 8.02837 24.7303 8.09922 24.7303 8.18208V9.07026Z" stroke="#5F3ECC" stroke-width="0.4" mask="url(#path-3-outside-1_55171_2603)"/>
    <path d="M15.2422 8.62498L15.2422 8.62509C15.2441 10.3543 16.6455 11.7557 18.3747 11.7577H18.3749C20.105 11.7577 21.5076 10.3551 21.5076 8.62498C21.5076 6.89486 20.105 5.49229 18.3749 5.49229C16.6447 5.49229 15.2422 6.89486 15.2422 8.62498ZM18.2859 6.96181H18.3749C19.2934 6.96181 20.038 7.70644 20.038 8.62498C20.038 9.54352 19.2934 10.2882 18.3749 10.2882C17.4563 10.2882 16.7117 9.54352 16.7117 8.62498V8.62496C16.7115 7.73578 17.4083 7.00906 18.2859 6.96181Z" fill="#5F3ECC" stroke="#5F3ECC" stroke-width="0.2"/>
</svg>
